<svg width="20" height="12" viewBox="0 0 20 12" fill="none" xmlns="http://www.w3.org/2000/svg">
<path d="M11.6644 5.1405C11.7217 5.44338 11.7626 5.74625 11.7626 6.13912C11.7626 9.56891 9.46247 12 6 12C2.68487 12 0 9.31516 0 6C0 2.68484 2.68487 0 6 0C7.62075 0 8.97134 0.589344 10.0191 1.57162L8.39016 3.13506C7.94812 2.70941 7.17053 2.21009 6 2.21009C3.95362 2.21009 2.28375 3.9045 2.28375 6C2.28375 8.0955 3.95362 9.78991 6 9.78991C8.37378 9.78991 9.26603 8.07912 9.40516 7.20325H6V5.14047H11.6644V5.1405ZM17.4583 5.34166V3.6H15.7083V5.34166H13.9667V7.09169H15.7083V8.83334H17.4583V7.09169H19.2V5.34166H17.4583V5.34166Z" fill="#CCCCCC"/>
</svg>
