<svg width="12" height="12" viewBox="0 0 12 12" fill="none" xmlns="http://www.w3.org/2000/svg">
<path d="M2.68613 12H0.198219V3.98821H2.68613V12ZM1.44084 2.89533C0.645282 2.89533 0 2.23639 0 1.44084C5.69423e-09 1.0587 0.151802 0.69222 0.422011 0.422011C0.69222 0.151802 1.0587 0 1.44084 0C1.82297 0 2.18945 0.151802 2.45966 0.422011C2.72987 0.69222 2.88167 1.0587 2.88167 1.44084C2.88167 2.23639 2.23612 2.89533 1.44084 2.89533ZM11.9976 12H9.51503V8.09991C9.51503 7.17043 9.49628 5.97844 8.22152 5.97844C6.92801 5.97844 6.72979 6.98828 6.72979 8.03295V12H4.24456V3.98821H6.63068V5.0811H6.66551C6.99766 4.45162 7.80901 3.78732 9.01949 3.78732C11.5374 3.78732 12.0003 5.44539 12.0003 7.59901V12H11.9976Z" fill="#CCCCCC"/>
</svg>
