<svg xmlns="http://www.w3.org/2000/svg">
    <symbol id="facebook" viewBox="0 0 7 12">
        <path
            d="M6.00586 6.75L6.33914 4.57828H4.25531V3.16898C4.25531 2.57484 4.54641 1.9957 5.47969 1.9957H6.42703V0.146719C6.42703 0.146719 5.56734 0 4.74539 0C3.0293 0 1.90758 1.04016 1.90758 2.92313V4.57828H0V6.75H1.90758V12H4.25531V6.75H6.00586Z" />
    </symbol>
    <symbol id="twitter" viewBox="0 0 15 12">
        <path
            d="M13.2563 2.99061C13.2656 3.12186 13.2656 3.25313 13.2656 3.38437C13.2656 7.38748 10.2188 12 4.65 12C2.93437 12 1.34063 11.5031 0 10.6406C0.243759 10.6687 0.47811 10.6781 0.731248 10.6781C2.14685 10.6781 3.45 10.2 4.49062 9.38439C3.15937 9.35625 2.04374 8.48438 1.65936 7.28437C1.84688 7.31248 2.03436 7.33124 2.23126 7.33124C2.50312 7.33124 2.77502 7.29372 3.02813 7.22813C1.64063 6.94686 0.599975 5.72812 0.599975 4.25624V4.21876C1.00309 4.44376 1.47187 4.58438 1.96871 4.60311C1.15309 4.05935 0.618733 3.13124 0.618733 2.08123C0.618733 1.51874 0.768705 1.00311 1.03122 0.553111C2.52185 2.39061 4.76249 3.59059 7.27497 3.72186C7.2281 3.49686 7.19997 3.26251 7.19997 3.02813C7.19997 1.35936 8.54997 0 10.2281 0C11.1 0 11.8875 0.365624 12.4406 0.95625C13.125 0.825006 13.7812 0.571868 14.3625 0.225002C14.1374 0.928142 13.6593 1.51877 13.0312 1.89374C13.6406 1.82815 14.2312 1.65936 14.775 1.42501C14.3625 2.02499 13.8469 2.55934 13.2563 2.99061V2.99061Z" />
    </symbol>
    <symbol id="google+" viewBox="0 0 20 12">
        <path
            d="M11.6644 5.1405C11.7217 5.44338 11.7626 5.74625 11.7626 6.13912C11.7626 9.56891 9.46247 12 6 12C2.68487 12 0 9.31516 0 6C0 2.68484 2.68487 0 6 0C7.62075 0 8.97134 0.589344 10.0191 1.57162L8.39016 3.13506C7.94812 2.70941 7.17053 2.21009 6 2.21009C3.95362 2.21009 2.28375 3.9045 2.28375 6C2.28375 8.0955 3.95362 9.78991 6 9.78991C8.37378 9.78991 9.26603 8.07912 9.40516 7.20325H6V5.14047H11.6644V5.1405ZM17.4583 5.34166V3.6H15.7083V5.34166H13.9667V7.09169H15.7083V8.83334H17.4583V7.09169H19.2V5.34166H17.4583V5.34166Z" />
    </symbol>
    <symbol id="lin" viewBox="0 0 12 12">
        <path
           d="M2.68613 12H0.198219V3.98821H2.68613V12ZM1.44084 2.89533C0.645282 2.89533 0 2.23639 0 1.44084C5.69423e-09 1.0587 0.151802 0.69222 0.422011 0.422011C0.69222 0.151802 1.0587 0 1.44084 0C1.82297 0 2.18945 0.151802 2.45966 0.422011C2.72987 0.69222 2.88167 1.0587 2.88167 1.44084C2.88167 2.23639 2.23612 2.89533 1.44084 2.89533ZM11.9976 12H9.51503V8.09991C9.51503 7.17043 9.49628 5.97844 8.22152 5.97844C6.92801 5.97844 6.72979 6.98828 6.72979 8.03295V12H4.24456V3.98821H6.63068V5.0811H6.66551C6.99766 4.45162 7.80901 3.78732 9.01949 3.78732C11.5374 3.78732 12.0003 5.44539 12.0003 7.59901V12H11.9976Z" />
    </symbol>



</svg>