<svg width="15" height="12" viewBox="0 0 15 12" fill="none" xmlns="http://www.w3.org/2000/svg">
<path d="M13.2563 2.99061C13.2656 3.12186 13.2656 3.25313 13.2656 3.38437C13.2656 7.38748 10.2188 12 4.65 12C2.93437 12 1.34063 11.5031 0 10.6406C0.243759 10.6687 0.47811 10.6781 0.731248 10.6781C2.14685 10.6781 3.45 10.2 4.49062 9.38439C3.15937 9.35625 2.04374 8.48438 1.65936 7.28437C1.84688 7.31248 2.03436 7.33124 2.23126 7.33124C2.50312 7.33124 2.77502 7.29372 3.02813 7.22813C1.64063 6.94686 0.599975 5.72812 0.599975 4.25624V4.21876C1.00309 4.44376 1.47187 4.58438 1.96871 4.60311C1.15309 4.05935 0.618733 3.13124 0.618733 2.08123C0.618733 1.51874 0.768705 1.00311 1.03122 0.553111C2.52185 2.39061 4.76249 3.59059 7.27497 3.72186C7.2281 3.49686 7.19997 3.26251 7.19997 3.02813C7.19997 1.35936 8.54997 0 10.2281 0C11.1 0 11.8875 0.365624 12.4406 0.95625C13.125 0.825006 13.7812 0.571868 14.3625 0.225002C14.1374 0.928142 13.6593 1.51877 13.0312 1.89374C13.6406 1.82815 14.2312 1.65936 14.775 1.42501C14.3625 2.02499 13.8469 2.55934 13.2563 2.99061V2.99061Z" fill="#CCCCCC"/>
</svg>
