<?xml version="1.0" encoding="utf-8"?>
<!-- Generator: Adobe Illustrator 23.1.0, SVG Export Plug-In . SVG Version: 6.00 Build 0)  -->
<svg version="1.1" id="Слой_1" xmlns="http://www.w3.org/2000/svg" xmlns:xlink="http://www.w3.org/1999/xlink" x="0px" y="0px"
	 viewBox="0 0 33 32" style="enable-background:new 0 0 33 32;" xml:space="preserve">
<style type="text/css">
	.st0{fill:none;stroke:#3DB370;}
</style>
<g id="XMLID_1_">
	<g>
		<path class="st0" d="M8.8,31.5c3.1,0,5.8-1.7,7.2-4.3c1.4,2.6,4.2,4.3,7.2,4.3c4.6,0,8.3-3.7,8.3-8.3c0-3.1-1.6-5.8-4.2-7.2
			c2.5-1.4,4.2-4.1,4.2-7.2c0-4.6-3.7-8.3-8.3-8.3c-3.1,0-5.8,1.7-7.2,4.3c-1.4-2.6-4.2-4.3-7.2-4.3c-4.6,0-8.3,3.7-8.3,8.3
			c0,3.1,1.7,5.8,4.2,7.2c-2.6,1.4-4.2,4.1-4.2,7.2C0.6,27.8,4.3,31.5,8.8,31.5z"/>
	</g>
</g>
</svg>
