<svg width="26" height="36" viewBox="0 0 26 36" fill="none" xmlns="http://www.w3.org/2000/svg">
<path d="M21.8053 0.599731C23.221 0.599731 24.3691 1.67379 24.3691 2.99818V32.9788C24.3691 34.3032 23.221 35.3773 21.8053 35.3773H4.17932C2.76363 35.3773 1.61554 34.3032 1.61554 32.9788V2.99818C1.61554 1.67379 2.76363 0.599731 4.17932 0.599731H21.8053Z" fill="#D1E7FF"/>
<path d="M17.0238 13.4703C17.6375 13.4703 18.1518 13.9028 18.2183 14.4732L19.0756 21.8394C19.1533 22.5043 18.5965 23.0851 17.881 23.0851H8.10342C7.38797 23.0851 6.83115 22.5043 6.90886 21.8394L7.76612 14.4732C7.83262 13.9028 8.34698 13.4703 8.96068 13.4703H17.0238Z" fill="#B9DCFF"/>
<path d="M21.9265 0.602254C23.9883 0.691971 23.879 3.59769 21.8149 3.59769H13.473C8.69423 3.59769 4.82027 7.22182 4.82027 11.6925V35.3771H4.17932C2.76339 35.3771 1.61554 34.3033 1.61554 32.9787V2.99808C1.61554 1.67346 2.76339 0.599631 4.17932 0.599631C4.29533 0.599631 21.8324 0.598132 21.9265 0.602254Z" fill="#E8F3FF"/>
<path d="M24.3691 30.1306V32.9788C24.3691 34.3031 23.221 35.3772 21.8053 35.3772H4.17932C2.76363 35.3772 1.61554 34.3031 1.61554 32.9788V30.1306H24.3691Z" fill="#B9DCFF"/>
<path d="M4.82025 30.1306V32.9877C4.82025 34.9409 1.61554 35.0408 1.61554 32.9787V30.1306H4.82025Z" fill="#D1E7FF"/>
<path d="M17.024 15.7189C13.1417 15.7189 9.96826 18.4531 9.55854 21.9753C9.48507 22.6068 8.91503 23.0851 8.23602 23.0851H8.10343C7.38797 23.0851 6.83115 22.5043 6.90886 21.8394L7.76613 14.4732C7.83263 13.9028 8.34699 13.4703 8.96069 13.4703H17.0238C17.637 13.4703 18.152 13.9024 18.2183 14.4727C18.2959 15.1393 17.7381 15.7189 17.024 15.7189Z" fill="#D1E7FF"/>
<path d="M21.8187 0H4.18134C2.41312 0 0.974548 1.3458 0.974548 3V33C0.974548 34.6542 2.41312 36 4.18134 36H21.8187C23.5869 36 25.0255 34.6542 25.0255 33V3C25.0255 1.3458 23.5869 0 21.8187 0ZM21.8187 34.8H4.18134C3.12045 34.8 2.25726 33.9925 2.25726 33V3C2.25726 2.00745 3.12045 1.2 4.18134 1.2H21.8187C22.8796 1.2 23.7428 2.00745 23.7428 3V29.55H5.38389C5.0297 29.55 4.74253 29.8187 4.74253 30.15C4.74253 30.4814 5.0297 30.75 5.38389 30.75H23.7428V33C23.7428 33.9925 22.8796 34.8 21.8187 34.8ZM14.4431 32.625C14.4431 32.9564 14.1559 33.225 13.8017 33.225H12.1983C11.8441 33.225 11.557 32.9564 11.557 32.625C11.557 32.2937 11.8441 32.025 12.1983 32.025H13.8017C14.1559 32.025 14.4431 32.2937 14.4431 32.625ZM8.10806 23.7H17.892C18.9889 23.7 19.8437 22.8079 19.7251 21.7883L18.8673 14.4176C18.7653 13.5407 17.9771 12.8794 17.0342 12.8794H16.4405V11.7686C16.4404 9.99383 14.8971 8.55 13 8.55C11.103 8.55 9.55961 9.99383 9.55961 11.7686V12.8793H8.96587C8.02292 12.8793 7.23493 13.5406 7.13279 14.4176L6.27505 21.7883C6.15632 22.8084 7.01181 23.7 8.10806 23.7ZM7.55015 21.9182L8.40789 14.5475C8.439 14.2806 8.67878 14.0793 8.96579 14.0793H9.55953V15.0155C9.55953 15.3469 9.8467 15.6155 10.2009 15.6155C10.5551 15.6155 10.8422 15.3469 10.8422 15.0155V11.7686C10.8422 10.6556 11.8101 9.75 12.9999 9.75C14.1897 9.75 15.1576 10.6555 15.1576 11.7686V12.8794H12.3834C12.0292 12.8794 11.7421 13.148 11.7421 13.4794C11.7421 13.8107 12.0292 14.0794 12.3834 14.0794H15.1576V15.0155C15.1576 15.3469 15.4448 15.6155 15.799 15.6155C16.1532 15.6155 16.4403 15.3469 16.4403 15.0155V14.0794H17.0341C17.3211 14.0794 17.5609 14.2807 17.592 14.5475L18.4497 21.9182C18.4858 22.2284 18.2275 22.5 17.8918 22.5H8.10806C7.77391 22.5 7.514 22.2296 7.55015 21.9182Z" fill="#007FFC"/>
</svg>
