<svg xmlns="http://www.w3.org/2000/svg" width="14.16" height="14.125" viewBox="0 0 14.16 14.125">
 
  <path id="Dribble" class="cls-1" d="M1031.42,268.592a6.388,6.388,0,0,0-.65-1.2,7.026,7.026,0,0,0-.86-1.045,7.585,7.585,0,0,0-1.05-.861,7.131,7.131,0,0,0-1.21-.652,6.819,6.819,0,0,0-1.33-.41,7.009,7.009,0,0,0-1.43-.145,6.842,6.842,0,0,0-1.42.145,7.134,7.134,0,0,0-1.34.41,7.04,7.04,0,0,0-1.2.652,7.585,7.585,0,0,0-1.05.861,7.317,7.317,0,0,0-1.52,2.247,6.828,6.828,0,0,0-.41,1.328,6.811,6.811,0,0,0,0,2.843,6.923,6.923,0,0,0,.41,1.329,7.041,7.041,0,0,0,.66,1.2,6.877,6.877,0,0,0,.86,1.045,7.163,7.163,0,0,0,1.05.859,6.982,6.982,0,0,0,1.2.654,7.159,7.159,0,0,0,2.76.555,7.3,7.3,0,0,0,1.43-.143,6.824,6.824,0,0,0,1.33-.412,7.071,7.071,0,0,0,1.21-.654,7.163,7.163,0,0,0,1.05-.859,6.877,6.877,0,0,0,.86-1.045,7.242,7.242,0,0,0,1.07-2.528,7.287,7.287,0,0,0,0-2.843A6.232,6.232,0,0,0,1031.42,268.592Zm-6.53-3.284a6.015,6.015,0,0,1,4,1.506,6.576,6.576,0,0,1-3.16,2.184,30.19,30.19,0,0,0-2.26-3.52A6.054,6.054,0,0,1,1024.89,265.308Zm-1.45.176v0l-0.02,0A0.032,0.032,0,0,0,1023.44,265.484Zm-1.13.4a36.071,36.071,0,0,1,2.25,3.474,22.432,22.432,0,0,1-5.59.736A6.022,6.022,0,0,1,1022.31,265.887Zm-1.92,9.482v0Zm0,0a5.961,5.961,0,0,1-1.55-4.03V271.15a22.321,22.321,0,0,0,6.22-.859c0.17,0.337.34,0.681,0.49,1.025l-0.24.07A9.567,9.567,0,0,0,1020.39,275.369Zm0.78,0.729s-0.05-.044-0.13-0.106c0.04,0.035.09,0.06,0.14,0.1Zm3.72,1.275a6.012,6.012,0,0,1-3.71-1.285,8.144,8.144,0,0,1,4.74-3.76,0.114,0.114,0,0,0,.04-0.014,24.637,24.637,0,0,1,1.3,4.58A6.062,6.062,0,0,1,1024.89,277.373Zm3.39-1.03a26.456,26.456,0,0,0-1.18-4.308,8.733,8.733,0,0,1,3.77.264A6.027,6.027,0,0,1,1028.28,276.343Zm-1.55-5.259c-0.04-.1-0.09-0.207-0.13-0.313-0.13-.3-0.26-0.587-0.4-0.875a7.749,7.749,0,0,0,3.37-2.386,6.02,6.02,0,0,1,1.38,3.769A14.206,14.206,0,0,0,1026.73,271.084Z" transform="translate(-1017.81 -264.281)"/>
</svg>
