<svg xmlns="http://www.w3.org/2000/svg" width="14.188" height="14.125" viewBox="0 0 14.188 14.125">
 
  <path id="Google" class="cls-1" d="M986.929,265.436H982.75c-2.12,0-3.89,1.557-3.89,3.272a3,3,0,0,0,3.159,3.146c0.136,0,.271-0.006.4-0.015a1.758,1.758,0,0,0-.222.81,1.458,1.458,0,0,0,.6,1.088c-0.251,0-.494.006-0.758,0.006-2.428,0-4.129,1.664-4.129,3.263,0,1.573,2.05,2.557,4.478,2.557,2.768,0,4.469-1.564,4.469-3.139,0-1.261-.273-1.9-1.623-2.9a3.011,3.011,0,0,1-1.228-1.283,1.428,1.428,0,0,1,.839-1.244,2.838,2.838,0,0,0,1.233-2.227,2.621,2.621,0,0,0-1.186-2.353H986Zm-1.417,10.719a1.946,1.946,0,0,1,.053.447c0,1.272-.822,2.264-3.181,2.264-1.679,0-2.891-1.057-2.891-2.328,0-1.246,1.422-2.323,3.1-2.3a3.645,3.645,0,0,1,1.087.174C984.593,275.04,985.327,275.434,985.512,276.155Zm-2.688-4.936a2.729,2.729,0,0,1-2.39-2.537c-0.2-1.474.56-2.6,1.686-2.57s2.09,1.244,2.284,2.719S983.95,271.253,982.824,271.219Zm7.331-3.669v-1.922h-0.964v1.922h-1.926v0.959h1.926v1.921h0.964v-1.921h1.93V267.55h-1.93Z" transform="translate(-977.906 -265.438)"/>
</svg>
