<svg xmlns="http://www.w3.org/2000/svg" width="14.156" height="11.469" viewBox="0 0 14.156 11.469">
  
  <path id="Tweter" class="cls-1" d="M927.833,275.164a8.28,8.28,0,0,0,12.736-6.946c0-.124,0-0.25-0.01-0.374a5.857,5.857,0,0,0,1.453-1.5,5.719,5.719,0,0,1-1.671.456,2.905,2.905,0,0,0,1.279-1.6,5.874,5.874,0,0,1-1.848.7,2.912,2.912,0,0,0-5.031,1.983,2.941,2.941,0,0,0,.074.66,8.271,8.271,0,0,1-6-3.028,2.9,2.9,0,0,0,.9,3.869,2.884,2.884,0,0,1-1.319-.361v0.035a2.9,2.9,0,0,0,2.334,2.842,2.844,2.844,0,0,1-.766.1,2.976,2.976,0,0,1-.547-0.051,2.907,2.907,0,0,0,2.717,2.012A5.925,5.925,0,0,1,927.833,275.164Z" transform="translate(-927.844 -265)"/>
</svg>
