<svg width="20" height="20" viewBox="0 0 20 20" fill="none" xmlns="http://www.w3.org/2000/svg">
<path d="M8.95833 10L11.3562 7.38958C11.5604 7.18333 11.5604 6.84896 11.3562 6.64167C11.1521 6.43646 10.8198 6.43646 10.6167 6.64167L7.69271 9.625C7.48854 9.83229 7.48854 10.1667 7.69271 10.3719L10.6167 13.3552C10.8198 13.5625 11.1521 13.5615 11.3562 13.3552C11.5604 13.15 11.5604 12.8156 11.3562 12.6083L8.95833 10ZM10 0C4.47708 0 0 4.47708 0 10C0 15.524 4.47708 20 10 20C15.5229 20 20 15.524 20 10C20 4.47708 15.5229 0 10 0ZM10 18.7021C5.19479 18.7021 1.29792 14.8062 1.29792 10C1.29792 5.19375 5.19479 1.29792 10 1.29792C14.8073 1.29792 18.7021 5.19375 18.7021 10C18.7021 14.8062 14.8073 18.7021 10 18.7021Z" fill="#BDBDBD"/>
</svg>
