<svg width="20" height="20" viewBox="0 0 20 20" fill="none" xmlns="http://www.w3.org/2000/svg">
<path d="M11.0417 10L8.64375 7.38958C8.43958 7.18333 8.43958 6.84896 8.64375 6.64167C8.84792 6.43646 9.18021 6.43646 9.38333 6.64167L12.3073 9.625C12.5115 9.83229 12.5115 10.1667 12.3073 10.3719L9.38333 13.3552C9.18021 13.5625 8.84792 13.5615 8.64375 13.3552C8.43958 13.15 8.43958 12.8156 8.64375 12.6083L11.0417 10ZM10 0C15.5229 0 20 4.47708 20 10C20 15.524 15.5229 20 10 20C4.47708 20 0 15.524 0 10C0 4.47708 4.47708 0 10 0ZM10 18.7021C14.8052 18.7021 18.7021 14.8062 18.7021 10C18.7021 5.19375 14.8052 1.29792 10 1.29792C5.19271 1.29792 1.29792 5.19375 1.29792 10C1.29792 14.8062 5.19271 18.7021 10 18.7021Z" fill="#BDBDBD"/>
</svg>
