<svg width="10" height="16" viewBox="0 0 10 16" fill="none" xmlns="http://www.w3.org/2000/svg">
<path d="M8.71875 9H6.375V16H3.25V9H0.71875V6.09375H3.25V3.90625C3.25 3.07292 3.40625 2.36458 3.71875 1.78125C4.03125 1.19792 4.46875 0.760417 5.03125 0.46875C5.61458 0.15625 6.28125 0 7.03125 0C7.36458 0 7.71875 0.0208333 8.09375 0.0625C8.46875 0.0833333 8.76042 0.114583 8.96875 0.15625L9.28125 0.1875V2.65625H8.03125C7.44792 2.65625 7.02083 2.8125 6.75 3.125C6.5 3.41667 6.375 3.78125 6.375 4.21875V6.09375H9.15625L8.71875 9Z" fill="white"/>
</svg>
