<svg width="25" height="24" viewBox="0 0 25 24" fill="none" xmlns="http://www.w3.org/2000/svg">
<path d="M5.87177 24H0.895949V7.97643H5.87177V24ZM3.38118 5.79066C1.79008 5.79066 0.499512 4.47278 0.499512 2.88167C0.499512 2.1174 0.803116 1.38444 1.34353 0.844022C1.88395 0.303604 2.61692 0 3.38118 0C4.14545 0 4.87841 0.303604 5.41883 0.844022C5.95925 1.38444 6.26285 2.1174 6.26285 2.88167C6.26285 4.47278 4.97175 5.79066 3.38118 5.79066ZM24.4947 24H19.5296V16.1998C19.5296 14.3409 19.4921 11.9569 16.9426 11.9569C14.3555 11.9569 13.9591 13.9766 13.9591 16.0659V24H8.98863V7.97643H13.7609V10.1622H13.8305C14.4948 8.90323 16.1175 7.57463 18.5385 7.57463C23.5743 7.57463 24.5 10.8908 24.5 15.198V24H24.4947Z" fill="#565656"/>
</svg>
