<svg width="113" height="38" viewBox="0 0 113 38" fill="none" xmlns="http://www.w3.org/2000/svg">
<path d="M10.784 14.036L6.112 25.5H4.72L0.048 14.036H1.288C1.42667 14.036 1.53867 14.0707 1.624 14.14C1.70933 14.2093 1.77333 14.2973 1.816 14.404L5.048 22.492C5.11733 22.6733 5.184 22.8707 5.248 23.084C5.31733 23.2973 5.37867 23.5213 5.432 23.756C5.48533 23.5213 5.54133 23.2973 5.6 23.084C5.65867 22.8707 5.72267 22.6733 5.792 22.492L9.016 14.404C9.048 14.3133 9.10933 14.2307 9.2 14.156C9.296 14.076 9.41067 14.036 9.544 14.036H10.784ZM15.0601 17.396V25.5H13.6361V17.396H15.0601ZM15.3641 14.852C15.3641 14.9907 15.3348 15.1213 15.2761 15.244C15.2228 15.3613 15.1481 15.468 15.0521 15.564C14.9615 15.6547 14.8521 15.7267 14.7241 15.78C14.6015 15.8333 14.4708 15.86 14.3321 15.86C14.1935 15.86 14.0628 15.8333 13.9401 15.78C13.8228 15.7267 13.7188 15.6547 13.6281 15.564C13.5375 15.468 13.4655 15.3613 13.4121 15.244C13.3588 15.1213 13.3321 14.9907 13.3321 14.852C13.3321 14.7133 13.3588 14.5827 13.4121 14.46C13.4655 14.332 13.5375 14.2227 13.6281 14.132C13.7188 14.036 13.8228 13.9613 13.9401 13.908C14.0628 13.8547 14.1935 13.828 14.3321 13.828C14.4708 13.828 14.6015 13.8547 14.7241 13.908C14.8521 13.9613 14.9615 14.036 15.0521 14.132C15.1481 14.2227 15.2228 14.332 15.2761 14.46C15.3348 14.5827 15.3641 14.7133 15.3641 14.852ZM24.4239 20.564C24.4239 20.2333 24.3759 19.932 24.2799 19.66C24.1892 19.3827 24.0532 19.1453 23.8719 18.948C23.6959 18.7453 23.4799 18.5907 23.2239 18.484C22.9679 18.372 22.6772 18.316 22.3519 18.316C21.6692 18.316 21.1279 18.516 20.7279 18.916C20.3332 19.3107 20.0879 19.86 19.9919 20.564H24.4239ZM25.5759 24.364C25.3999 24.5773 25.1892 24.764 24.9439 24.924C24.6985 25.0787 24.4345 25.2067 24.1519 25.308C23.8745 25.4093 23.5865 25.484 23.2879 25.532C22.9892 25.5853 22.6932 25.612 22.3999 25.612C21.8399 25.612 21.3225 25.5187 20.8479 25.332C20.3785 25.14 19.9705 24.8627 19.6239 24.5C19.2825 24.132 19.0159 23.6787 18.8239 23.14C18.6319 22.6013 18.5359 21.9827 18.5359 21.284C18.5359 20.7187 18.6212 20.1907 18.7919 19.7C18.9679 19.2093 19.2185 18.7853 19.5439 18.428C19.8692 18.0653 20.2665 17.7827 20.7359 17.58C21.2052 17.372 21.7332 17.268 22.3199 17.268C22.8052 17.268 23.2532 17.3507 23.6639 17.516C24.0799 17.676 24.4372 17.9107 24.7359 18.22C25.0399 18.524 25.2772 18.9027 25.4479 19.356C25.6185 19.804 25.7039 20.316 25.7039 20.892C25.7039 21.116 25.6799 21.2653 25.6319 21.34C25.5839 21.4147 25.4932 21.452 25.3599 21.452H19.9439C19.9599 21.964 20.0292 22.4093 20.1519 22.788C20.2799 23.1667 20.4559 23.484 20.6799 23.74C20.9039 23.9907 21.1705 24.18 21.4799 24.308C21.7892 24.4307 22.1359 24.492 22.5199 24.492C22.8772 24.492 23.1839 24.452 23.4399 24.372C23.7012 24.2867 23.9252 24.196 24.1119 24.1C24.2985 24.004 24.4532 23.916 24.5759 23.836C24.7039 23.7507 24.8132 23.708 24.9039 23.708C25.0212 23.708 25.1119 23.7533 25.1759 23.844L25.5759 24.364ZM40.1509 17.396L37.5269 25.5H36.3989C36.2602 25.5 36.1642 25.4093 36.1109 25.228L34.3189 19.732C34.2762 19.6093 34.2415 19.4867 34.2149 19.364C34.1882 19.236 34.1615 19.1107 34.1349 18.988C34.1082 19.1107 34.0815 19.236 34.0549 19.364C34.0282 19.4867 33.9935 19.612 33.9509 19.74L32.1269 25.228C32.0789 25.4093 31.9722 25.5 31.8069 25.5H30.7349L28.1109 17.396H29.2309C29.3429 17.396 29.4362 17.4253 29.5109 17.484C29.5909 17.5427 29.6442 17.612 29.6709 17.692L31.2229 22.908C31.3135 23.292 31.3855 23.6547 31.4389 23.996C31.4869 23.82 31.5349 23.6413 31.5829 23.46C31.6362 23.2787 31.6922 23.0947 31.7509 22.908L33.4629 17.66C33.4895 17.58 33.5349 17.5133 33.5989 17.46C33.6682 17.4067 33.7509 17.38 33.8469 17.38H34.4709C34.5775 17.38 34.6655 17.4067 34.7349 17.46C34.8042 17.5133 34.8522 17.58 34.8789 17.66L36.5509 22.908C36.6095 23.0947 36.6629 23.2787 36.7109 23.46C36.7589 23.6413 36.8042 23.82 36.8469 23.996C36.8735 23.82 36.9055 23.644 36.9429 23.468C36.9855 23.2867 37.0309 23.1 37.0789 22.908L38.6629 17.692C38.6895 17.6067 38.7402 17.5373 38.8149 17.484C38.8895 17.4253 38.9775 17.396 39.0789 17.396H40.1509ZM54.3958 21.244L52.5958 16.58C52.5424 16.4413 52.4864 16.2813 52.4278 16.1C52.3691 15.9133 52.3131 15.716 52.2598 15.508C52.1478 15.94 52.0331 16.3 51.9158 16.588L50.1158 21.244H54.3958ZM57.6278 25.5H56.4278C56.2891 25.5 56.1771 25.4653 56.0918 25.396C56.0064 25.3267 55.9424 25.2387 55.8998 25.132L54.8278 22.364H49.6838L48.6118 25.132C48.5798 25.228 48.5184 25.3133 48.4278 25.388C48.3371 25.4627 48.2251 25.5 48.0918 25.5H46.8918L51.4758 14.036H53.0438L57.6278 25.5ZM61.8406 13.716V25.5H60.4166V13.716H61.8406ZM67.2219 13.716V25.5H65.7979V13.716H67.2219Z" fill="#7B7B7B"/>
<path d="M112.53 19.5303C112.823 19.2374 112.823 18.7626 112.53 18.4697L107.757 13.6967C107.464 13.4038 106.99 13.4038 106.697 13.6967C106.404 13.9896 106.404 14.4645 106.697 14.7574L110.939 19L106.697 23.2426C106.404 23.5355 106.404 24.0104 106.697 24.3033C106.99 24.5962 107.464 24.5962 107.757 24.3033L112.53 19.5303ZM89 19.75L112 19.75L112 18.25L89 18.25L89 19.75Z" fill="#7B7B7B"/>
</svg>
