<svg version="1.1" xmlns="http://www.w3.org/2000/svg" xmlns:xlink="http://www.w3.org/1999/xlink">
    <symbol viewBox="0 0 26 24" id="instagram">
            <path d="M13.0029 5.8467C9.59691 5.8467 6.84962 8.594 6.84962 12C6.84962 15.406 9.59691 18.1533 13.0029 18.1533C16.4089 18.1533 19.1562 15.406 19.1562 12C19.1562 8.594 16.4089 5.8467 13.0029 5.8467ZM13.0029 16.0004C10.8019 16.0004 9.00247 14.2064 9.00247 12C9.00247 9.7936 10.7965 7.99955 13.0029 7.99955C15.2093 7.99955 17.0034 9.7936 17.0034 12C17.0034 14.2064 15.204 16.0004 13.0029 16.0004ZM20.8431 5.595C20.8431 6.39295 20.2005 7.03024 19.4079 7.03024C18.61 7.03024 17.9727 6.38759 17.9727 5.595C17.9727 4.80241 18.6153 4.15977 19.4079 4.15977C20.2005 4.15977 20.8431 4.80241 20.8431 5.595ZM24.9186 7.05166C24.8275 5.12909 24.3884 3.42608 22.9799 2.02298C21.5768 0.619882 19.8738 0.180743 17.9513 0.0843468C15.9698 -0.0281156 10.0307 -0.0281156 8.04922 0.0843468C6.132 0.175388 4.429 0.614526 3.02054 2.01763C1.61209 3.42073 1.1783 5.12373 1.08191 7.0463C0.969443 9.02778 0.969443 14.9669 1.08191 16.9483C1.17295 18.8709 1.61209 20.5739 3.02054 21.977C4.429 23.3801 6.12665 23.8193 8.04922 23.9157C10.0307 24.0281 15.9698 24.0281 17.9513 23.9157C19.8738 23.8246 21.5768 23.3855 22.9799 21.977C24.383 20.5739 24.8222 18.8709 24.9186 16.9483C25.031 14.9669 25.031 9.03314 24.9186 7.05166ZM22.3587 19.0744C21.941 20.1241 21.1323 20.9327 20.0773 21.3558C18.4975 21.9824 14.7488 21.8378 13.0029 21.8378C11.2571 21.8378 7.50297 21.977 5.9285 21.3558C4.87885 20.9381 4.07019 20.1294 3.64712 19.0744C3.02054 17.4946 3.16514 13.7458 3.16514 12C3.16514 10.2542 3.0259 6.50006 3.64712 4.92558C4.06484 3.87593 4.87349 3.06728 5.9285 2.6442C7.50833 2.01763 11.2571 2.16222 13.0029 2.16222C14.7488 2.16222 18.5029 2.02298 20.0773 2.6442C21.127 3.06192 21.9356 3.87058 22.3587 4.92558C22.9853 6.50541 22.8407 10.2542 22.8407 12C22.8407 13.7458 22.9853 17.4999 22.3587 19.0744Z" />
        </symbol>
    <symbol  viewBox="0 0 14 24" id="facebook">
            <path d="M12.5845 13.5L13.251 9.15656H9.08338V6.33797C9.08338 5.14969 9.66557 3.99141 11.5321 3.99141H13.4268V0.293438C13.4268 0.293438 11.7074 0 10.0635 0C6.63135 0 4.38791 2.08031 4.38791 5.84625V9.15656H0.572754V13.5H4.38791V24H9.08338V13.5H12.5845Z"/>
        </symbol>

    <symbol  viewBox="0 0 25 24" id="lin">
<path d="M5.87177 24H0.895949V7.97643H5.87177V24ZM3.38118 5.79066C1.79008 5.79066 0.499512 4.47278 0.499512 2.88167C0.499512 2.1174 0.803116 1.38444 1.34353 0.844022C1.88395 0.303604 2.61692 0 3.38118 0C4.14545 0 4.87841 0.303604 5.41883 0.844022C5.95925 1.38444 6.26285 2.1174 6.26285 2.88167C6.26285 4.47278 4.97175 5.79066 3.38118 5.79066ZM24.4947 24H19.5296V16.1998C19.5296 14.3409 19.4921 11.9569 16.9426 11.9569C14.3555 11.9569 13.9591 13.9766 13.9591 16.0659V24H8.98863V7.97643H13.7609V10.1622H13.8305C14.4948 8.90323 16.1175 7.57463 18.5385 7.57463C23.5743 7.57463 24.5 10.8908 24.5 15.198V24H24.4947Z" />
    </symbol>
    
    <symbol  viewBox="0 0 30 24" id="twitter">
<path d="M26.7376 5.98123C26.7564 6.24372 26.7564 6.50626 26.7564 6.76875C26.7564 14.775 20.6626 24 9.52511 24C6.09384 24 2.90636 23.0062 0.225098 21.2813C0.712616 21.3375 1.18132 21.3563 1.68759 21.3563C4.5188 21.3563 7.12509 20.4 9.20635 18.7688C6.54384 18.7125 4.31258 16.9688 3.54382 14.5687C3.91885 14.625 4.29383 14.6625 4.68762 14.6625C5.23135 14.6625 5.77514 14.5874 6.28135 14.4563C3.50636 13.8937 1.42505 11.4562 1.42505 8.51249V8.43752C2.23127 8.88752 3.16885 9.16877 4.16252 9.20622C2.53127 8.1187 1.46256 6.26247 1.46256 4.16246C1.46256 3.03748 1.76251 2.00623 2.28754 1.10622C5.2688 4.78122 9.75008 7.18118 14.775 7.44372C14.6813 6.99372 14.625 6.52502 14.625 6.05626C14.625 2.71872 17.325 0 20.6813 0C22.425 0 24 0.731248 25.1063 1.9125C26.475 1.65001 27.7875 1.14374 28.95 0.450003C28.5 1.85628 27.5438 3.03754 26.2875 3.78748C27.5063 3.6563 28.6876 3.31872 29.775 2.85002C28.9502 4.04997 27.9189 5.11868 26.7376 5.98123Z" />
    </symbol>

</svg>