<svg width="30" height="24" viewBox="0 0 30 24" fill="none" xmlns="http://www.w3.org/2000/svg">
<path d="M26.7376 5.98123C26.7564 6.24372 26.7564 6.50626 26.7564 6.76875C26.7564 14.775 20.6626 24 9.52511 24C6.09384 24 2.90636 23.0062 0.225098 21.2813C0.712616 21.3375 1.18132 21.3563 1.68759 21.3563C4.5188 21.3563 7.12509 20.4 9.20635 18.7688C6.54384 18.7125 4.31258 16.9688 3.54382 14.5687C3.91885 14.625 4.29383 14.6625 4.68762 14.6625C5.23135 14.6625 5.77514 14.5874 6.28135 14.4563C3.50636 13.8937 1.42505 11.4562 1.42505 8.51249V8.43752C2.23127 8.88752 3.16885 9.16877 4.16252 9.20622C2.53127 8.1187 1.46256 6.26247 1.46256 4.16246C1.46256 3.03748 1.76251 2.00623 2.28754 1.10622C5.2688 4.78122 9.75008 7.18118 14.775 7.44372C14.6813 6.99372 14.625 6.52502 14.625 6.05626C14.625 2.71872 17.325 0 20.6813 0C22.425 0 24 0.731248 25.1063 1.9125C26.475 1.65001 27.7875 1.14374 28.95 0.450003C28.5 1.85628 27.5438 3.03754 26.2875 3.78748C27.5063 3.6563 28.6876 3.31872 29.775 2.85002C28.9502 4.04997 27.9189 5.11868 26.7376 5.98123Z" fill="white"/>
</svg>
