<svg width="32" height="32" viewBox="0 0 32 32" fill="none" xmlns="http://www.w3.org/2000/svg">
<path d="M29.334 3H25V1C25 0.447 24.553 0 24 0C23.447 0 23 0.447 23 1V3H17V1C17 0.447 16.552 0 16 0C15.448 0 15 0.447 15 1V3H9V1C9 0.447 8.552 0 8 0C7.448 0 7 0.447 7 1V3H2.667C1.194 3 0 4.193 0 5.666V29.333C0 30.806 1.194 32 2.667 32H29.334C30.807 32 32 30.806 32 29.333V5.666C32 4.193 30.807 3 29.334 3ZM30 29.333C30 29.701 29.701 30 29.334 30H2.667C2.299 30 2 29.701 2 29.333V5.666C2 5.299 2.299 5 2.667 5H7V7C7 7.553 7.448 8 8 8C8.552 8 9 7.553 9 7V5H15V7C15 7.553 15.448 8 16 8C16.552 8 17 7.553 17 7V5H23V7C23 7.553 23.447 8 24 8C24.553 8 25 7.553 25 7V5H29.334C29.701 5 30 5.299 30 5.666V29.333ZM7 12H11V15H7V12ZM7 17H11V20H7V17ZM7 22H11V25H7V22ZM14 22H18V25H14V22ZM14 17H18V20H14V17ZM14 12H18V15H14V12ZM21 22H25V25H21V22ZM21 17H25V20H21V17ZM21 12H25V15H21V12Z" fill="white"/>
</svg>
