<svg width="32" height="28" viewBox="0 0 32 28" fill="none" xmlns="http://www.w3.org/2000/svg">
<path d="M16 5C16.276 5 16.5 5.224 16.5 5.5C16.5 5.776 16.275 6 16 6C10.673 6 6 8.804 6 12C6 12.276 5.776 12.5 5.5 12.5C5.224 12.5 5 12.276 5 12C5 8.206 10.037 5 16 5ZM16 0C7.163 0 0 5.373 0 12C0 16.127 2.779 19.766 7.008 21.926C7.008 21.953 7 21.971 7 22C7 23.793 5.661 25.723 5.072 26.736C5.073 26.736 5.074 26.736 5.074 26.736C5.027 26.846 5 26.967 5 27.094C5 27.594 5.405 28 5.906 28C6 28 6.165 27.975 6.161 27.986C9.286 27.474 12.23 24.603 12.914 23.771C13.913 23.918 14.943 24 16 24C24.835 24 32 18.627 32 12C32 5.373 24.836 0 16 0ZM16 22C15.083 22 14.142 21.93 13.204 21.793C13.107 21.777 13.01 21.772 12.914 21.772C12.32 21.772 11.751 22.036 11.368 22.502C10.94 23.023 9.722 24.186 8.283 25.041C8.673 24.146 8.978 23.143 8.999 22.109C9.005 22.045 9.008 21.98 9.008 21.925C9.008 21.173 8.587 20.486 7.918 20.144C4.212 18.252 2 15.207 2 12C2 6.486 8.28 2 16 2C23.718 2 30 6.486 30 12C30 17.514 23.719 22 16 22Z" fill="#BDBDBD"/>
</svg>
