<svg width="32" height="28" viewBox="0 0 32 28" fill="none" xmlns="http://www.w3.org/2000/svg">
<path d="M32 6C32 4.594 31.043 3.392 29.674 3.076L16.661 0.073C16.443 0.024 16.221 0 16 0C15.779 0 15.557 0.024 15.325 0.076L2.326 3.076C0.956 3.392 0 4.594 0 6C0 7.406 0.957 8.608 2.325 8.924L5 9.541V18C5 20.654 8.038 23 16 23C23.962 23 27 20.654 27 18V9.541L29.674 8.924C31.043 8.608 32 7.406 32 6ZM25 18C25 19.105 22 21 16 21C10 21 7 19.105 7 18V10.003L15.338 11.927C15.556 11.976 15.779 12 16 12C16.221 12 16.444 11.976 16.674 11.924L25 10.003V18ZM16.225 9.975C16.15 9.991 16.075 10 16 10C15.925 10 15.849 9.991 15.775 9.975L2.775 6.975C2.321 6.87 2 6.466 2 6C2 5.534 2.321 5.13 2.775 5.025L15.775 2.025C15.849 2.009 15.924 2 16 2C16.076 2 16.151 2.009 16.225 2.025L29.225 5.025C29.678 5.13 30 5.534 30 6C30 6.466 29.678 6.87 29.225 6.975L16.225 9.975ZM29 11C29 10.447 29.447 10 30 10C30.552 10 31 10.447 31 11V20C31 20.553 30.552 21 30 21C29.447 21 29 20.553 29 20V11ZM30 22C31.104 22 32 24.896 32 26C32 27.104 31.104 28 30 28C28.895 28 28 27.104 28 26C28 24.896 28.895 22 30 22Z" fill="#BDBDBD"/>
</svg>
