<svg width="32" height="21" viewBox="0 0 32 21" fill="none" xmlns="http://www.w3.org/2000/svg">
<path d="M28 0H4C1.791 0 0 1.792 0 4V17C0 19.209 1.791 21 4 21H28C30.209 21 32 19.209 32 17V4C32 1.792 30.209 0 28 0ZM2 5.25L8.999 10.5L2 15.75V5.25ZM30 17C30 18.104 29.102 19 28 19H4C2.897 19 2 18.104 2 17L9.832 11.125L14.2 14.402C14.733 14.8 15.366 15.002 16 15.002C16.633 15.002 17.266 14.801 17.799 14.402L22.168 11.125L30 17ZM30 15.75L23 10.5L30 5.25V15.75ZM17.199 13.602C16.85 13.864 16.436 14.002 16 14.002C15.564 14.002 15.149 13.863 14.8 13.602L2 4C2 2.897 2.897 2 4 2H28C29.102 2 30 2.897 30 4L17.199 13.602Z" fill="#BDBDBD"/>
</svg>
