<svg width="25" height="32" viewBox="0 0 25 32" fill="none" xmlns="http://www.w3.org/2000/svg">
<path d="M12.002 17.746C15.311 17.746 18.002 15.054 18.002 11.746C18.002 8.438 15.311 5.746 12.002 5.746C8.693 5.746 6.002 8.437 6.002 11.746C6.002 15.055 8.693 17.746 12.002 17.746ZM12.002 6.746C14.76 6.746 17.002 8.988 17.002 11.746C17.002 14.504 14.76 16.746 12.002 16.746C9.244 16.746 7.002 14.504 7.002 11.746C7.002 8.988 9.244 6.746 12.002 6.746ZM12 0C5.382 0 0 5.316 0 12.001C0 19.001 6.001 26.162 10.376 31.195C10.392 31.215 11.094 32 11.962 32C11.964 32 12.035 32 12.039 32C12.906 32 13.609 31.215 13.625 31.195C18.002 26.162 24.002 19.002 24.002 12.001C24.002 5.316 18.619 0 12 0V0ZM12.117 29.883C12.096 29.903 12.035 29.947 11.982 29.981C11.972 29.954 11.898 29.895 11.853 29.848C8.188 25.631 2 18.514 2 12.001C2 6.487 6.487 2 12 2C17.516 2 22.002 6.487 22.002 12.002C22.002 18.514 15.814 25.631 12.117 29.883Z" fill="#BDBDBD"/>
</svg>
