<svg width="26" height="24" viewBox="0 0 26 24" fill="none" xmlns="http://www.w3.org/2000/svg">
<path d="M13 4.6875C13.2242 4.6875 13.4062 4.8695 13.4062 5.09375C13.4062 5.318 13.2234 5.5 13 5.5C8.67181 5.5 4.875 7.77825 4.875 10.375C4.875 10.5992 4.693 10.7812 4.46875 10.7812C4.2445 10.7812 4.0625 10.5992 4.0625 10.375C4.0625 7.29238 8.15506 4.6875 13 4.6875ZM13 0.625C5.81994 0.625 0 4.99056 0 10.375C0 13.7282 2.25794 16.6849 5.694 18.4399C5.694 18.4618 5.6875 18.4764 5.6875 18.5C5.6875 19.9568 4.59956 21.5249 4.121 22.348C4.12181 22.348 4.12262 22.348 4.12262 22.348C4.08444 22.4374 4.0625 22.5357 4.0625 22.6389C4.0625 23.0451 4.39156 23.375 4.79862 23.375C4.875 23.375 5.00906 23.3547 5.00581 23.3636C7.54487 22.9476 9.93687 20.6149 10.4926 19.9389C11.3043 20.0584 12.1412 20.125 13 20.125C20.1784 20.125 26 15.7594 26 10.375C26 4.99056 20.1793 0.625 13 0.625ZM13 18.5C12.2549 18.5 11.4904 18.4431 10.7283 18.3318C10.6494 18.3188 10.5706 18.3147 10.4926 18.3147C10.01 18.3147 9.54769 18.5293 9.2365 18.9079C8.88875 19.3312 7.89913 20.2761 6.72994 20.9708C7.04681 20.2436 7.29462 19.4287 7.31169 18.5886C7.31656 18.5366 7.319 18.4837 7.319 18.4391C7.319 17.8281 6.97694 17.2699 6.43338 16.992C3.42225 15.4547 1.625 12.9807 1.625 10.375C1.625 5.89488 6.7275 2.25 13 2.25C19.2709 2.25 24.375 5.89488 24.375 10.375C24.375 14.8551 19.2717 18.5 13 18.5Z" fill="white"/>
</svg>
