<svg width="26" height="26" viewBox="0 0 26 26" fill="none" xmlns="http://www.w3.org/2000/svg">
<path d="M10.5625 7.21503V8.58815H25.9858C25.9643 8.14534 25.9179 7.58553 25.7522 7.21503" fill="#EC1C24"/>
<path d="M25.025 5.84186H10.5625V7.21498H25.7522C25.5872 6.7027 25.3419 6.23551 25.025 5.84186" fill="#E6E7E8"/>
<path d="M21.9375 4.46875H10.5625V5.84188H25.025C24.347 4.99281 23.231 4.46875 21.9375 4.46875Z" fill="#EC1C24"/>
<path d="M25.9858 8.58813H10.5625V9.96126H26V9.04598C26 8.96432 25.9947 8.8847 25.9923 8.80467C25.9907 8.78273 25.9882 8.72626 25.9858 8.58813" fill="#E6E7E8"/>
<path d="M10.5625 11.3344H26V9.96124H10.5625V11.3344Z" fill="#EC1C24"/>
<path d="M10.5625 12.7075H26V11.3344H10.5625V12.7075" fill="#E6E7E8"/>
<path d="M10.5625 12.7075H26V14.0806H10.5625V12.7075Z" fill="#EC1C24"/>
<path d="M0 14.0806V15.4538H26V14.0806H10.5625H0Z" fill="#E6E7E8"/>
<path d="M0 15.4537H26V16.8269H0V15.4537Z" fill="#EC1C24"/>
<path d="M0.00203125 17.6715C0.00203125 17.6715 -0.001625 18.0042 0.008125 18.2H25.9919C26.0032 17.9993 25.998 17.6715 25.998 17.6715L26 16.8269H0L0.00203125 17.6715Z" fill="#E6E7E8"/>
<path d="M4.0625 22.3437H21.9375C23.2347 22.3437 24.3128 21.8725 25.0494 20.9462H0.946564C1.70706 21.8928 2.80556 22.3437 4.06047 22.3437" fill="#EC1C24"/>
<path d="M0.948601 20.9462H25.0514C25.3727 20.538 25.6127 20.0718 25.7583 19.5731H0.245789C0.394109 20.0704 0.633072 20.5359 0.950632 20.9462" fill="#E6E7E8"/>
<path d="M0.243743 19.5731H25.7562C25.8893 19.1265 25.9684 18.6655 25.9919 18.2H0.00811768C0.0483364 18.6696 0.0857114 19.0243 0.243743 19.5731Z" fill="#EC1C24"/>
<path d="M10.5625 4.46875H4.0625C1.37028 4.46875 0 6.46953 0 8.9375V14.0806H10.5625V4.46875Z" fill="#176496"/>
<path d="M1.13668 6.8965L1.35768 6.72669L1.57828 6.8965L1.49256 6.6235L1.71234 6.45653H1.44096L1.35687 6.18231L1.27318 6.45653H1.00221L1.22281 6.6235L1.13668 6.8965ZM2.59674 6.8965L2.81774 6.72669L3.03834 6.8965L2.95303 6.6235L3.1724 6.45653H2.90143L2.81734 6.18231L2.73365 6.45653H2.46187L2.68246 6.6235L2.59674 6.8965ZM4.20753 6.8965L4.42812 6.72669L4.64912 6.8965L4.5634 6.6235L4.78278 6.45653H4.51343L4.42812 6.18231L4.34403 6.45653H4.07468L4.29284 6.6235L4.20753 6.8965ZM5.80653 6.8965L6.02712 6.72669L6.24812 6.8965L6.16281 6.6235L6.38218 6.45653H6.10999L6.02712 6.18231L5.94343 6.45653H5.67206L5.89224 6.6235L5.80653 6.8965ZM7.41121 6.8965L7.63221 6.72669L7.85281 6.8965L7.7675 6.6235L7.98728 6.45653H7.7155L7.63181 6.18231L7.54812 6.45653H7.27715L7.49653 6.6235L7.41121 6.8965ZM1.91384 7.60947L2.13443 7.44006L2.35503 7.60947L2.27012 7.33687L2.48949 7.16991H2.21812L2.13403 6.89609L2.05156 7.16991H1.77937L1.99915 7.33687L1.91384 7.60947ZM3.37431 7.60947L3.5949 7.44006L3.81549 7.60947L3.73018 7.33687L3.94956 7.16991H3.67656L3.5949 6.89609L3.51081 7.16991H3.23984L3.45962 7.33687L3.37431 7.60947ZM4.98509 7.60947L5.20528 7.44006L5.42587 7.60947L5.34056 7.33687L5.56034 7.16991H5.28937L5.20528 6.89609L5.12118 7.16991H4.84981L5.06959 7.33687L4.98509 7.60947ZM6.58328 7.60947L6.80428 7.44006L7.02528 7.60947L6.93875 7.33687L7.15893 7.16991H6.88796L6.80387 6.89609L6.72059 7.16991H6.44921L6.669 7.33687L6.58328 7.60947ZM8.18999 7.60947L8.40896 7.44006L8.62956 7.60947L8.54343 7.33687L8.76362 7.16991H8.49306L8.40856 6.89609L8.32528 7.16991H8.0539L8.27368 7.33687L8.18999 7.60947ZM9.09471 6.8965L9.31531 6.72669L9.53631 6.8965L9.45059 6.6235L9.66996 6.45653H9.40062L9.3149 6.18231L9.23121 6.45653H8.95781L9.18003 6.6235L9.09471 6.8965ZM1.11515 12.6019L1.33615 12.4341L1.55674 12.6019L1.47143 12.3313L1.69081 12.1639L1.41984 12.1647L1.33534 11.8909L1.25246 12.1647L0.980682 12.1639L1.20046 12.3313L1.11515 12.6019ZM2.57562 12.6019L2.79621 12.4341L3.01721 12.6019L2.93149 12.3313L3.15087 12.1639L2.88031 12.1647L2.79581 11.8909L2.71253 12.1647L2.44156 12.1639L2.66093 12.3313L2.57562 12.6019ZM4.1864 12.6019L4.40699 12.4341L4.628 12.6019L4.54228 12.3313L4.76165 12.1639L4.48906 12.1647L4.40659 11.8909L4.3229 12.1647L4.05193 12.1639L4.27171 12.3313L4.1864 12.6019ZM5.7854 12.6019L6.006 12.4341L6.22659 12.6019L6.14249 12.3313L6.36065 12.1639L6.08928 12.1647L6.00559 11.8909L5.9219 12.1647L5.65093 12.1639L5.87031 12.3313L5.7854 12.6019ZM7.38968 12.6019L7.61068 12.4341L7.83168 12.6019L7.74718 12.3313L7.96534 12.1639L7.69437 12.1647L7.61028 11.8909L7.527 12.1647L7.25562 12.1639L7.47499 12.3313L7.38968 12.6019ZM9.07318 12.6019L9.29378 12.4341L9.51478 12.6019L9.42906 12.3313L9.64884 12.1639L9.37625 12.1647L9.29337 11.8909L9.20968 12.1647L8.9375 12.1639L9.1585 12.3313L9.07318 12.6019ZM1.13668 8.32325L1.35768 8.15344L1.57828 8.32325L1.49256 8.05025L1.71234 7.88328L1.44096 7.88409L1.35687 7.60947L1.27318 7.88409L1.00221 7.88328L1.22281 8.05025L1.13668 8.32325ZM2.59674 8.32325L2.81774 8.15344L3.03834 8.32325L2.95303 8.05025L3.1724 7.88328L2.90143 7.88409L2.81734 7.60947L2.73365 7.88409L2.46187 7.88328L2.68246 8.05025L2.59674 8.32325ZM4.20753 8.32325L4.42812 8.15344L4.64912 8.32325L4.5634 8.05025L4.78278 7.88328L4.51343 7.88409L4.42812 7.60947L4.34403 7.88409L4.07468 7.88328L4.29284 8.05025L4.20753 8.32325ZM5.80653 8.32325L6.02712 8.15344L6.24812 8.32325L6.16281 8.05025L6.38218 7.88328L6.10999 7.88409L6.02712 7.60947L5.94343 7.88409L5.67206 7.88328L5.89224 8.05025L5.80653 8.32325ZM7.41121 8.32325L7.63221 8.15344L7.85281 8.32325L7.7675 8.05025L7.98728 7.88328L7.7155 7.88409L7.63181 7.60947L7.54812 7.88409L7.27715 7.88328L7.49653 8.05025L7.41121 8.32325ZM1.91384 9.03662L2.13443 8.86722L2.35503 9.03662L2.27012 8.76403L2.48949 8.59625H2.21812L2.13403 8.32325L2.05156 8.59625H1.77937L1.99915 8.76403L1.91384 9.03662ZM3.37431 9.03662L3.5949 8.86722L3.81549 9.03662L3.73018 8.76403L3.94956 8.59625H3.67656L3.5949 8.32325L3.51081 8.59625H3.23984L3.45962 8.76403L3.37431 9.03662ZM4.98509 9.03662L5.20528 8.86722L5.42587 9.03662L5.34056 8.76403L5.56034 8.59625H5.28937L5.20528 8.32325L5.12118 8.59625H4.84981L5.06959 8.76403L4.98509 9.03662ZM6.58328 9.03662L6.80428 8.86722L7.02528 9.03662L6.93875 8.76403L7.15893 8.59625H6.88796L6.80387 8.32325L6.72059 8.59625H6.44921L6.669 8.76403L6.58328 9.03662ZM8.18999 9.03662L8.40896 8.86722L8.62956 9.03662L8.54343 8.76403L8.76362 8.59625H8.49306L8.40856 8.32325L8.32528 8.59625H8.0539L8.27368 8.76403L8.18999 9.03662ZM9.09471 8.32325L9.31531 8.15344L9.53631 8.32325L9.45059 8.05025L9.66996 7.88328L9.40062 7.88409L9.3149 7.60947L9.23121 7.88409L8.95781 7.88328L9.18003 8.05025L9.09471 8.32325ZM1.11515 9.75L1.33615 9.58059L1.55674 9.75L1.47103 9.47781L1.69081 9.31044L1.41943 9.31125L1.33534 9.03662L1.25246 9.31125L0.980682 9.31044L1.20046 9.47781L1.11515 9.75ZM2.57562 9.75L2.79621 9.58059L3.01721 9.75L2.93149 9.47781L3.15087 9.31044L2.88031 9.31125L2.79581 9.03662L2.71253 9.31125L2.44156 9.31044L2.66053 9.47781L2.57562 9.75ZM4.1864 9.75L4.40699 9.58059L4.62759 9.75L4.54228 9.47781L4.76165 9.31044L4.48906 9.31125L4.40659 9.03662L4.3229 9.31125L4.05193 9.31044L4.27171 9.47781L4.1864 9.75ZM5.7854 9.75L6.00559 9.58059L6.22659 9.75L6.14249 9.47781L6.36065 9.31044L6.08928 9.31125L6.00559 9.03662L5.9219 9.31125L5.65093 9.31044L5.87031 9.47781L5.7854 9.75ZM7.38968 9.75L7.61068 9.58059L7.83128 9.75L7.74718 9.47781L7.96534 9.31044L7.69396 9.31125L7.61028 9.03662L7.527 9.31125L7.25562 9.31044L7.47499 9.47781L7.38968 9.75ZM1.89231 10.4634L2.1129 10.2944L2.33349 10.4634L2.24859 10.1928L2.46756 10.0246H2.19618L2.11249 9.75L2.02921 10.0246H1.75784L1.97762 10.1928L1.89231 10.4634ZM3.35278 10.4634L3.57337 10.2944L3.79396 10.4634L3.70865 10.1928L3.92803 10.0246H3.65624L3.57296 9.75L3.48928 10.0246H3.2179L3.43809 10.1928L3.35278 10.4634ZM4.96396 10.4634L5.18375 10.2944L5.40474 10.4634L5.31781 10.1928L5.53881 10.0246H5.26784L5.18375 9.75L5.10006 10.0246H4.82868L5.04846 10.1928L4.96396 10.4634ZM6.56093 10.4634L6.78274 10.2944L7.00374 10.4634L6.91843 10.1928L7.1374 10.0246H6.86643L6.78234 9.75L6.69906 10.0246H6.42768L6.64746 10.1928L6.56093 10.4634ZM8.16562 10.4634L8.38743 10.2944L8.60843 10.4634L8.52271 10.1928L8.7429 10.0246H8.47193L8.38743 9.75L8.30375 10.0246H8.03237L8.25215 10.1928L8.16562 10.4634ZM9.07318 9.75L9.29378 9.58059L9.51437 9.75L9.42906 9.47781L9.64884 9.31044L9.37625 9.31125L9.29337 9.03662L9.20968 9.31125L8.9375 9.31044L9.1585 9.47781L9.07318 9.75ZM1.11515 11.1772L1.33615 11.0094L1.55674 11.1772L1.47103 10.9046L1.69081 10.7372L1.41943 10.738L1.33534 10.4634L1.25246 10.738L0.980682 10.7372L1.20046 10.9046L1.11515 11.1772ZM2.57562 11.1772L2.79621 11.0094L3.01721 11.1772L2.93149 10.9046L3.15087 10.7372L2.88031 10.738L2.79581 10.4634L2.71253 10.738L2.44156 10.7372L2.66053 10.9046L2.57562 11.1772ZM4.1864 11.1772L4.40699 11.0094L4.62759 11.1772L4.54228 10.9046L4.76165 10.7372L4.48906 10.738L4.40659 10.4634L4.3229 10.738L4.05193 10.7372L4.27171 10.9046L4.1864 11.1772ZM5.7854 11.1772L6.00559 11.0094L6.22659 11.1772L6.14249 10.9046L6.36065 10.7372L6.08928 10.738L6.00559 10.4634L5.9219 10.738L5.65093 10.7372L5.87031 10.9046L5.7854 11.1772ZM7.38968 11.1772L7.61068 11.0094L7.83128 11.1772L7.74718 10.9046L7.96534 10.7372L7.69396 10.738L7.61028 10.4634L7.527 10.738L7.25562 10.7372L7.47499 10.9046L7.38968 11.1772ZM1.89231 11.8909L2.1129 11.7211L2.33349 11.8909L2.24859 11.6179L2.46756 11.4522H2.19618L2.11249 11.1772L2.02921 11.4522H1.75784L1.97762 11.6179L1.89231 11.8909ZM3.35278 11.8909L3.57337 11.7211L3.79396 11.8909L3.70865 11.6179L3.92803 11.4522H3.65624L3.57296 11.1772L3.48928 11.4522H3.2179L3.43809 11.6179L3.35278 11.8909ZM4.96396 11.8909L5.18375 11.7211L5.40474 11.8909L5.31781 11.6179L5.53881 11.4522H5.26784L5.18375 11.1772L5.10006 11.4522H4.82868L5.04846 11.6179L4.96396 11.8909ZM6.56093 11.8909L6.78274 11.7211L7.00374 11.8909L6.91843 11.6179L7.1374 11.4522H6.86643L6.78234 11.1772L6.69906 11.4522H6.42768L6.64746 11.6179L6.56093 11.8909ZM8.16562 11.8909L8.38743 11.7211L8.60843 11.8909L8.52271 11.6179L8.7429 11.4522H8.47193L8.38743 11.1772L8.30375 11.4522H8.03237L8.25215 11.6179L8.16562 11.8909ZM9.07318 11.1772L9.29378 11.0094L9.51437 11.1772L9.42906 10.9046L9.64884 10.7372L9.37625 10.738L9.29337 10.4634L9.20968 10.738L8.9375 10.7372L9.1585 10.9046L9.07318 11.1772Z" fill="white"/>
</svg>
