<svg width="18" height="26" viewBox="0 0 18 26" fill="none" xmlns="http://www.w3.org/2000/svg">
<path d="M9 0C4.06325 0 0.0625 4.00075 0.0625 8.9375C0.0625 12.2127 3.059 15.6837 4.15019 18.7322C5.77763 23.2781 5.59725 26 9 26C12.4531 26 12.2216 23.2911 13.8498 18.7509C14.9442 15.6959 17.9375 12.1875 17.9375 8.9375C17.9375 4.00075 13.9351 0 9 0ZM11.106 22.0805L7.07762 22.5834C6.93381 22.1674 6.77944 21.6808 6.59175 21.0454C6.58931 21.0373 6.58606 21.0283 6.58444 21.0202L11.6122 20.3921C11.5407 20.6318 11.4643 20.8837 11.3977 21.1096C11.2913 21.4744 11.1962 21.7913 11.106 22.0805ZM6.348 20.2378C6.20013 19.7486 6.03356 19.2335 5.84831 18.6875H12.1582C12.0582 18.9792 11.9583 19.2717 11.8722 19.5479L6.348 20.2378ZM9 24.375C8.17694 24.375 7.79831 24.2799 7.37744 23.3594L10.8208 22.9279C10.3219 24.2718 9.95875 24.375 9 24.375ZM12.796 17.0625H5.21294C4.80831 16.185 4.32244 15.3075 3.84306 14.4487C2.78275 12.5515 1.6875 10.5893 1.6875 8.9375C1.6875 4.90506 4.96756 1.625 9 1.625C13.0324 1.625 16.3125 4.90506 16.3125 8.9375C16.3125 10.5771 15.2156 12.5499 14.1545 14.4584C13.68 15.314 13.1974 16.1899 12.796 17.0625ZM9 4.0625C9.22344 4.0625 9.40625 4.2445 9.40625 4.46875C9.40625 4.693 9.22425 4.875 9 4.875C6.75994 4.875 4.9375 6.69744 4.9375 8.9375C4.9375 9.16175 4.7555 9.34375 4.53125 9.34375C4.307 9.34375 4.125 9.16175 4.125 8.9375C4.125 6.24894 6.31144 4.0625 9 4.0625Z" fill="#BDBDBD"/>
</svg>
