<svg width="249" height="35" viewBox="0 0 249 35" fill="none" xmlns="http://www.w3.org/2000/svg">
<path d="M70.88 26V12H77C78.52 12 79.8533 12.2933 81 12.88C82.1467 13.4667 83.04 14.28 83.68 15.32C84.32 16.36 84.64 17.5867 84.64 19C84.64 20.4 84.32 21.6267 83.68 22.68C83.04 23.72 82.1467 24.5333 81 25.12C79.8533 25.7067 78.52 26 77 26H70.88ZM73.48 23.8H76.88C77.9333 23.8 78.84 23.6 79.6 23.2C80.3733 22.8 80.9667 22.24 81.38 21.52C81.8067 20.8 82.02 19.96 82.02 19C82.02 18.0267 81.8067 17.1867 81.38 16.48C80.9667 15.76 80.3733 15.2 79.6 14.8C78.84 14.4 77.9333 14.2 76.88 14.2H73.48V23.8ZM93.7434 26V23.84L93.6034 23.38V19.6C93.6034 18.8667 93.3834 18.3 92.9434 17.9C92.5034 17.4867 91.8368 17.28 90.9434 17.28C90.3434 17.28 89.7501 17.3733 89.1634 17.56C88.5901 17.7467 88.1034 18.0067 87.7034 18.34L86.7234 16.52C87.2968 16.08 87.9768 15.7533 88.7634 15.54C89.5634 15.3133 90.3901 15.2 91.2434 15.2C92.7901 15.2 93.9834 15.5733 94.8234 16.32C95.6768 17.0533 96.1034 18.1933 96.1034 19.74V26H93.7434ZM90.3834 26.14C89.5834 26.14 88.8834 26.0067 88.2834 25.74C87.6834 25.46 87.2168 25.08 86.8834 24.6C86.5634 24.1067 86.4034 23.5533 86.4034 22.94C86.4034 22.34 86.5434 21.8 86.8234 21.32C87.1168 20.84 87.5901 20.46 88.2434 20.18C88.8968 19.9 89.7634 19.76 90.8434 19.76H93.9434V21.42H91.0234C90.1701 21.42 89.5968 21.56 89.3034 21.84C89.0101 22.1067 88.8634 22.44 88.8634 22.84C88.8634 23.2933 89.0434 23.6533 89.4034 23.92C89.7634 24.1867 90.2634 24.32 90.9034 24.32C91.5168 24.32 92.0634 24.18 92.5434 23.9C93.0368 23.62 93.3901 23.2067 93.6034 22.66L94.0234 24.16C93.7834 24.7867 93.3501 25.2733 92.7234 25.62C92.1101 25.9667 91.3301 26.14 90.3834 26.14ZM103.332 26.14C102.159 26.14 101.252 25.84 100.612 25.24C99.9719 24.6267 99.6519 23.7267 99.6519 22.54V12.96H102.152V22.48C102.152 22.9867 102.279 23.38 102.532 23.66C102.799 23.94 103.165 24.08 103.632 24.08C104.192 24.08 104.659 23.9333 105.032 23.64L105.732 25.42C105.439 25.66 105.079 25.84 104.652 25.96C104.225 26.08 103.785 26.14 103.332 26.14ZM97.8919 17.4V15.4H105.012V17.4H97.8919ZM114.368 26V23.84L114.228 23.38V19.6C114.228 18.8667 114.008 18.3 113.568 17.9C113.128 17.4867 112.462 17.28 111.568 17.28C110.968 17.28 110.375 17.3733 109.788 17.56C109.215 17.7467 108.728 18.0067 108.328 18.34L107.348 16.52C107.922 16.08 108.602 15.7533 109.388 15.54C110.188 15.3133 111.015 15.2 111.868 15.2C113.415 15.2 114.608 15.5733 115.448 16.32C116.302 17.0533 116.728 18.1933 116.728 19.74V26H114.368ZM111.008 26.14C110.208 26.14 109.508 26.0067 108.908 25.74C108.308 25.46 107.842 25.08 107.508 24.6C107.188 24.1067 107.028 23.5533 107.028 22.94C107.028 22.34 107.168 21.8 107.448 21.32C107.742 20.84 108.215 20.46 108.868 20.18C109.522 19.9 110.388 19.76 111.468 19.76H114.568V21.42H111.648C110.795 21.42 110.222 21.56 109.928 21.84C109.635 22.1067 109.488 22.44 109.488 22.84C109.488 23.2933 109.668 23.6533 110.028 23.92C110.388 24.1867 110.888 24.32 111.528 24.32C112.142 24.32 112.688 24.18 113.168 23.9C113.662 23.62 114.015 23.2067 114.228 22.66L114.648 24.16C114.408 24.7867 113.975 25.2733 113.348 25.62C112.735 25.9667 111.955 26.14 111.008 26.14ZM123.477 26L118.837 12H121.537L125.677 24.66H124.337L128.637 12H131.037L135.217 24.66H133.917L138.157 12H140.637L135.997 26H133.237L129.417 14.58H130.137L126.257 26H123.477ZM148.294 26V23.84L148.154 23.38V19.6C148.154 18.8667 147.934 18.3 147.494 17.9C147.054 17.4867 146.388 17.28 145.494 17.28C144.894 17.28 144.301 17.3733 143.714 17.56C143.141 17.7467 142.654 18.0067 142.254 18.34L141.274 16.52C141.848 16.08 142.528 15.7533 143.314 15.54C144.114 15.3133 144.941 15.2 145.794 15.2C147.341 15.2 148.534 15.5733 149.374 16.32C150.228 17.0533 150.654 18.1933 150.654 19.74V26H148.294ZM144.934 26.14C144.134 26.14 143.434 26.0067 142.834 25.74C142.234 25.46 141.768 25.08 141.434 24.6C141.114 24.1067 140.954 23.5533 140.954 22.94C140.954 22.34 141.094 21.8 141.374 21.32C141.668 20.84 142.141 20.46 142.794 20.18C143.448 19.9 144.314 19.76 145.394 19.76H148.494V21.42H145.574C144.721 21.42 144.148 21.56 143.854 21.84C143.561 22.1067 143.414 22.44 143.414 22.84C143.414 23.2933 143.594 23.6533 143.954 23.92C144.314 24.1867 144.814 24.32 145.454 24.32C146.068 24.32 146.614 24.18 147.094 23.9C147.588 23.62 147.941 23.2067 148.154 22.66L148.574 24.16C148.334 24.7867 147.901 25.2733 147.274 25.62C146.661 25.9667 145.881 26.14 144.934 26.14ZM153.863 26V15.32H156.243V18.26L155.963 17.4C156.283 16.68 156.783 16.1333 157.463 15.76C158.156 15.3867 159.016 15.2 160.043 15.2V17.58C159.936 17.5533 159.836 17.54 159.743 17.54C159.649 17.5267 159.556 17.52 159.463 17.52C158.516 17.52 157.763 17.8 157.203 18.36C156.643 18.9067 156.363 19.7267 156.363 20.82V26H153.863ZM167.086 26.14C165.899 26.14 164.859 25.9067 163.966 25.44C163.086 24.96 162.399 24.3067 161.906 23.48C161.426 22.6533 161.186 21.7133 161.186 20.66C161.186 19.5933 161.419 18.6533 161.886 17.84C162.366 17.0133 163.019 16.3667 163.846 15.9C164.686 15.4333 165.639 15.2 166.706 15.2C167.746 15.2 168.672 15.4267 169.486 15.88C170.299 16.3333 170.939 16.9733 171.406 17.8C171.872 18.6267 172.106 19.6 172.106 20.72C172.106 20.8267 172.099 20.9467 172.086 21.08C172.086 21.2133 172.079 21.34 172.066 21.46H163.166V19.8H170.746L169.766 20.32C169.779 19.7067 169.652 19.1667 169.386 18.7C169.119 18.2333 168.752 17.8667 168.286 17.6C167.832 17.3333 167.306 17.2 166.706 17.2C166.092 17.2 165.552 17.3333 165.086 17.6C164.632 17.8667 164.272 18.24 164.006 18.72C163.752 19.1867 163.626 19.74 163.626 20.38V20.78C163.626 21.42 163.772 21.9867 164.066 22.48C164.359 22.9733 164.772 23.3533 165.306 23.62C165.839 23.8867 166.452 24.02 167.146 24.02C167.746 24.02 168.286 23.9267 168.766 23.74C169.246 23.5533 169.672 23.26 170.046 22.86L171.386 24.4C170.906 24.96 170.299 25.3933 169.566 25.7C168.846 25.9933 168.019 26.14 167.086 26.14ZM180.567 15.2C181.421 15.2 182.181 15.3667 182.847 15.7C183.527 16.0333 184.061 16.5467 184.447 17.24C184.834 17.92 185.027 18.8 185.027 19.88V26H182.527V20.2C182.527 19.2533 182.301 18.5467 181.847 18.08C181.407 17.6133 180.787 17.38 179.987 17.38C179.401 17.38 178.881 17.5 178.427 17.74C177.974 17.98 177.621 18.34 177.367 18.82C177.127 19.2867 177.007 19.88 177.007 20.6V26H174.507V11.16H177.007V18.2L176.467 17.32C176.841 16.64 177.381 16.12 178.087 15.76C178.807 15.3867 179.634 15.2 180.567 15.2ZM193.018 26.14C191.925 26.14 190.951 25.9067 190.098 25.44C189.245 24.96 188.571 24.3067 188.078 23.48C187.585 22.6533 187.338 21.7133 187.338 20.66C187.338 19.5933 187.585 18.6533 188.078 17.84C188.571 17.0133 189.245 16.3667 190.098 15.9C190.951 15.4333 191.925 15.2 193.018 15.2C194.125 15.2 195.105 15.4333 195.958 15.9C196.825 16.3667 197.498 17.0067 197.978 17.82C198.471 18.6333 198.718 19.58 198.718 20.66C198.718 21.7133 198.471 22.6533 197.978 23.48C197.498 24.3067 196.825 24.96 195.958 25.44C195.105 25.9067 194.125 26.14 193.018 26.14ZM193.018 24C193.631 24 194.178 23.8667 194.658 23.6C195.138 23.3333 195.511 22.9467 195.778 22.44C196.058 21.9333 196.198 21.34 196.198 20.66C196.198 19.9667 196.058 19.3733 195.778 18.88C195.511 18.3733 195.138 17.9867 194.658 17.72C194.178 17.4533 193.638 17.32 193.038 17.32C192.425 17.32 191.878 17.4533 191.398 17.72C190.931 17.9867 190.558 18.3733 190.278 18.88C189.998 19.3733 189.858 19.9667 189.858 20.66C189.858 21.34 189.998 21.9333 190.278 22.44C190.558 22.9467 190.931 23.3333 191.398 23.6C191.878 23.8667 192.418 24 193.018 24ZM205.629 26.14C204.722 26.14 203.922 25.9733 203.229 25.64C202.535 25.2933 201.995 24.7733 201.609 24.08C201.222 23.3733 201.029 22.4867 201.029 21.42V15.32H203.529V21.08C203.529 22.04 203.742 22.76 204.169 23.24C204.609 23.7067 205.229 23.94 206.029 23.94C206.615 23.94 207.122 23.82 207.549 23.58C207.989 23.34 208.329 22.98 208.569 22.5C208.822 22.02 208.949 21.4267 208.949 20.72V15.32H211.449V26H209.069V23.12L209.489 24C209.129 24.6933 208.602 25.2267 207.909 25.6C207.215 25.96 206.455 26.14 205.629 26.14ZM218.022 26.14C217.129 26.14 216.269 26.0267 215.442 25.8C214.629 25.56 213.982 25.2733 213.502 24.94L214.462 23.04C214.942 23.3467 215.515 23.6 216.182 23.8C216.849 24 217.515 24.1 218.182 24.1C218.969 24.1 219.535 23.9933 219.882 23.78C220.242 23.5667 220.422 23.28 220.422 22.92C220.422 22.6267 220.302 22.4067 220.062 22.26C219.822 22.1 219.509 21.98 219.122 21.9C218.735 21.82 218.302 21.7467 217.822 21.68C217.355 21.6133 216.882 21.5267 216.402 21.42C215.935 21.3 215.509 21.1333 215.122 20.92C214.735 20.6933 214.422 20.3933 214.182 20.02C213.942 19.6467 213.822 19.1533 213.822 18.54C213.822 17.86 214.015 17.2733 214.402 16.78C214.789 16.2733 215.329 15.8867 216.022 15.62C216.729 15.34 217.562 15.2 218.522 15.2C219.242 15.2 219.969 15.28 220.702 15.44C221.435 15.6 222.042 15.8267 222.522 16.12L221.562 18.02C221.055 17.7133 220.542 17.5067 220.022 17.4C219.515 17.28 219.009 17.22 218.502 17.22C217.742 17.22 217.175 17.3333 216.802 17.56C216.442 17.7867 216.262 18.0733 216.262 18.42C216.262 18.74 216.382 18.98 216.622 19.14C216.862 19.3 217.175 19.4267 217.562 19.52C217.949 19.6133 218.375 19.6933 218.842 19.76C219.322 19.8133 219.795 19.9 220.262 20.02C220.729 20.14 221.155 20.3067 221.542 20.52C221.942 20.72 222.262 21.0067 222.502 21.38C222.742 21.7533 222.862 22.24 222.862 22.84C222.862 23.5067 222.662 24.0867 222.262 24.58C221.875 25.0733 221.322 25.46 220.602 25.74C219.882 26.0067 219.022 26.14 218.022 26.14ZM230.035 26.14C228.848 26.14 227.808 25.9067 226.915 25.44C226.035 24.96 225.348 24.3067 224.855 23.48C224.375 22.6533 224.135 21.7133 224.135 20.66C224.135 19.5933 224.368 18.6533 224.835 17.84C225.315 17.0133 225.968 16.3667 226.795 15.9C227.635 15.4333 228.588 15.2 229.655 15.2C230.695 15.2 231.622 15.4267 232.435 15.88C233.248 16.3333 233.888 16.9733 234.355 17.8C234.822 18.6267 235.055 19.6 235.055 20.72C235.055 20.8267 235.048 20.9467 235.035 21.08C235.035 21.2133 235.028 21.34 235.015 21.46H226.115V19.8H233.695L232.715 20.32C232.728 19.7067 232.602 19.1667 232.335 18.7C232.068 18.2333 231.702 17.8667 231.235 17.6C230.782 17.3333 230.255 17.2 229.655 17.2C229.042 17.2 228.502 17.3333 228.035 17.6C227.582 17.8667 227.222 18.24 226.955 18.72C226.702 19.1867 226.575 19.74 226.575 20.38V20.78C226.575 21.42 226.722 21.9867 227.015 22.48C227.308 22.9733 227.722 23.3533 228.255 23.62C228.788 23.8867 229.402 24.02 230.095 24.02C230.695 24.02 231.235 23.9267 231.715 23.74C232.195 23.5533 232.622 23.26 232.995 22.86L234.335 24.4C233.855 24.96 233.248 25.3933 232.515 25.7C231.795 25.9933 230.968 26.14 230.035 26.14Z" fill="#212353"/>
<rect y="15" width="20" height="20" rx="10" fill="#9C69E2"/>
<rect x="29" width="20" height="35" rx="10" fill="#F063B8"/>
</svg>
